<svg xmlns:inkscape="http://www.inkscape.org/namespaces/inkscape" xmlns:sodipodi="http://sodipodi.sourceforge.net/DTD/sodipodi-0.dtd" xmlns="http://www.w3.org/2000/svg" xmlns:svg="http://www.w3.org/2000/svg" width="160.30672mm" height="49.383698mm" viewBox="0 0 160.30672 49.383698" id="svg5" xml:space="preserve" inkscape:version="1.2.2 (b0a8486541, 2022-12-01)" sodipodi:docname="nec-white.svg"><defs id="defs2"></defs><g inkscape:label="Layer 1" inkscape:groupmode="layer" id="layer1"><path style="fill:#ffffff;fill-opacity:1;stroke-width:0.170116" d="M 10.547175,49.118706 C 8.061896,48.706016 6.579806,48.062276 4.470131,46.479166 2.622683,45.092836 0.885415,42.308066 0.232927,39.687106 0.045043,38.932396 0,35.988176 0,24.461746 V 10.17203 L 0.401494,8.89616 C 1.277582,6.11212 3.309894,3.48475 5.786929,1.93385 7.637108,0.77544 9.27885,0.28112 11.807332,0.12112 l 1.886983,-0.1194 V 1.44373 2.88574 L 11.950629,3.07729 C 10.027144,3.28859 8.51547,3.74232 7.503296,4.41214 5.284192,6.09609 3.639203,7.02146 2.985046,11.672846 c -0.236874,1.76948 -0.239975,24.28599 -0.0036,26.08815 0.33413,2.54738 1.272717,4.4069 3.079138,6.10035 1.703838,1.59728 3.262371,2.22494 5.96442,2.40202 l 1.669303,0.10939 v 1.50547 1.50547 l -0.893107,-0.0195 c -0.491209,-0.0107 -1.505524,-0.1212 -2.254033,-0.24549 z m 136.007515,-1.24048 v -1.50547 l 1.68543,-0.11045 c 2.99777,-0.19645 4.62418,-0.94422 6.52933,-3.00195 1.13357,-1.22438 1.80618,-2.41207 2.28086,-4.02762 0.26062,-0.88701 0.29788,-2.30166 0.35312,-13.41006 0.0399,-8.01996 -0.002,-12.96394 -0.11755,-13.95856 C 156.67914,5.98179 152.72094,3.62991 148.29843,3.07726 L 146.55474,2.88571 V 1.44286 0 l 1.82875,0.11738 c 2.88916,0.18545 4.27959,0.6705 6.88831,2.40301 3.00295,2.45315 4.48159,4.9158 4.91127,8.45249 0.10171,0.896066 0.14619,6.743486 0.11259,14.800066 l -0.0556,13.31872 c -1.09293,5.26417 -5.00166,8.33296 -8.36432,9.53663 -0.9656,0.29943 -3.78107,0.75291 -4.68325,0.75433 l -0.63794,10e-4 z m -79.01875,-8.52383 c -0.955485,-0.16242 -2.444782,-0.7114 -4.337951,-1.59903 -3.330248,-1.56143 -6.435275,-5.41297 -7.494153,-9.2959 -0.325059,-1.192 -0.394153,-1.86431 -0.393362,-3.8276 8.5e-4,-2.04499 0.0632,-2.60215 0.441294,-3.94182 0.242183,-0.85811 0.752738,-2.15949 1.134564,-2.89197 0.836526,-1.60474 2.677436,-3.80944 4.085678,-4.89306 1.849129,-1.42287 4.7723,-2.664706 7.074277,-3.005326 1.432957,-0.21204 5.074501,-0.0411 4.906752,0.23033 -0.06591,0.10663 -0.02953,0.12927 0.08951,0.0557 0.303388,-0.18751 2.686712,0.6662 4.375802,1.567396 1.198229,0.63932 1.858339,1.15817 3.277849,2.57645 1.6726,1.67114 1.75835,1.79012 1.45346,2.01652 -0.1782,0.13232 -1.27446,0.88741 -2.43614,1.67796 l -2.112149,1.43738 -0.94994,-1.00691 c -1.733111,-1.83705 -3.955455,-2.81402 -6.39364,-2.81075 -1.942421,0.003 -3.216227,0.3162 -4.593125,1.13075 -2.746564,1.62482 -4.333177,4.15165 -4.616015,7.35143 -0.130421,1.47546 0.322565,3.41773 1.148419,4.92407 0.709519,1.29415 2.359321,2.9232 3.652675,3.60673 1.564167,0.82666 3.93017,1.20001 5.756,0.90829 2.120828,-0.33885 3.520835,-1.11354 5.128026,-2.83758 l 0.86217,-0.92485 c 2.160319,1.41274 3.468869,2.22804 4.842109,3.36136 l -1.69305,1.75083 c -1.7955,1.81001 -3.927449,3.08086 -6.189232,3.85826 -1.524501,0.5124 -1.981178,0.58792 -3.94662,0.6527 -1.222447,0.0403 -2.605391,0.008 -3.073209,-0.0713 z M 8.420728,24.631866 c 0,-7.81257 0.0289,-14.204666 0.06423,-14.204666 1.889108,2.163796 6.021401,5.549346 16.503439,15.093306 l 1.719773,1.5691 0.04413,-8.3312 0.04413,-8.331206 h 2.890363 2.890365 v 5.698876 5.69888 h 1.360926 1.360926 V 16.126076 10.4272 H 46.0163 56.73359 v 2.977026 2.97702 h -7.825323 -7.825323 v 2.72185 2.72186 h 5.528761 5.528761 v 2.89196 2.89197 h -5.528761 -5.528761 v 2.72185 2.72185 h 7.825323 7.825323 v 2.89197 2.89197 H 46.0163 35.29901 v -5.61382 -5.61382 h -1.358633 -1.358633 l -0.04482,5.63185 -0.04482,5.63186 -3.236579,-2.95254 C 25.523902,32.515936 16.268278,24.132936 15.038012,23.042976 l -0.83335,-0.73831 v 8.26593 8.26593 H 11.312695 8.420728 Z m 82.165892,0 V 10.4272 h 2.97703 2.97702 v 11.312696 11.31269 h 5.01841 5.01842 v 2.89197 2.89197 h -7.99544 -7.99544 z m 23.64609,2.97702 v -11.22764 h -3.91267 -3.91266 V 13.404226 10.4272 h 10.71729 10.71729 v 2.977026 2.97702 h -3.91266 -3.91266 v 11.22764 11.22764 h -2.89197 -2.89196 z m 16.16099,-2.97533 V 10.38779 l 4.55059,0.0819 c 4.17901,0.0752 4.6838,0.11711 6.18183,0.5133 4.51263,1.193496 8.18184,4.406316 9.69447,8.488646 1.62912,4.39673 1.22245,8.96065 -1.13059,12.6882 -1.22145,1.93495 -3.86993,4.28937 -5.81426,5.1687 -3.00533,1.35917 -3.02581,1.36269 -8.50616,1.46128 l -4.97588,0.0895 z m 8.18103,8.22865 c 3.441,-0.38437 5.95246,-2.22929 7.19253,-6.30019 0.9876,-3.42802 -1.00207,-7.67825 -4.35041,-9.29313 -1.4169,-0.68336 -2.28204,-0.8783 -3.92081,-0.88347 l -1.3184,-0.004 v 8.33567 8.33567 h 0.4833 c 0.26581,0 1.12702,-0.0857 1.9138,-0.19038 z" id="path302" sodipodi:nodetypes="sssscssscccsccsssccccssccsssscccccsccsccscccssssssssssssscscssssssccccsccscccccccccccccccccccccccccccccccccccccccccsscccccsccccccccccccccccccccccccccccccccssssssccccsccccscc"></path></g></svg>