<?xml version="1.0" encoding="UTF-8"?>
<svg xmlns="http://www.w3.org/2000/svg" width="313.583" height="49.768" viewBox="0 0 313.583 49.768">
  <g id="Group_1" data-name="Group 1" transform="translate(87 1568.384)">
    <g id="layer1" transform="translate(-87 -1568)">
      <path id="path302" d="M10.547,49.119a12.19,12.19,0,0,1-6.077-2.64A13.106,13.106,0,0,1,.233,39.687C.045,38.932,0,35.988,0,24.462V10.172L.4,8.9A13.159,13.159,0,0,1,5.787,1.934,11.638,11.638,0,0,1,11.807.121L13.694,0V2.886l-1.744.192A10.239,10.239,0,0,0,7.5,4.412C5.284,6.1,3.639,7.021,2.985,11.673c-.237,1.769-.24,24.286,0,26.088a9.478,9.478,0,0,0,3.079,6.1,8.454,8.454,0,0,0,5.964,2.4l1.669.109v3.011l-.893-.02a20,20,0,0,1-2.254-.245Zm136.008-1.24V46.373l1.685-.11a8.415,8.415,0,0,0,6.529-3,9.465,9.465,0,0,0,2.281-4.028c.261-.887.3-2.3.353-13.41.04-8.02,0-12.964-.118-13.959-.607-5.882-4.565-8.234-8.987-8.787l-1.744-.192V0l1.829.117a11.707,11.707,0,0,1,6.888,2.4c3,2.453,4.482,4.916,4.911,8.452.1.9.146,6.743.113,14.8l-.056,13.319a12.967,12.967,0,0,1-8.364,9.537,26.444,26.444,0,0,1-4.683.754h-.638ZM67.536,39.354a19.4,19.4,0,0,1-4.338-1.6,15.332,15.332,0,0,1-7.494-9.3,12.074,12.074,0,0,1-.393-3.828,11.475,11.475,0,0,1,.441-3.942A18.319,18.319,0,0,1,56.886,17.8a17.671,17.671,0,0,1,4.086-4.893A17.006,17.006,0,0,1,68.046,9.9c1.433-.212,5.075-.041,4.907.23-.066.107-.03.129.09.056.3-.188,2.687.666,4.376,1.567A12.1,12.1,0,0,1,80.7,14.33c1.673,1.671,1.758,1.79,1.453,2.017-.178.132-1.274.887-2.436,1.678L77.6,19.461l-.95-1.007a8.628,8.628,0,0,0-6.394-2.811,8.227,8.227,0,0,0-4.593,1.131,9.138,9.138,0,0,0-4.616,7.351A9.381,9.381,0,0,0,62.2,29.05a10.557,10.557,0,0,0,3.653,3.607,10.1,10.1,0,0,0,5.756.908,8.106,8.106,0,0,0,5.128-2.838L77.6,29.8a52.3,52.3,0,0,1,4.842,3.361l-1.693,1.751a16,16,0,0,1-6.189,3.858,10.435,10.435,0,0,1-3.947.653,22.235,22.235,0,0,1-3.073-.071ZM8.421,24.632c0-7.813.029-14.2.064-14.2,1.889,2.164,6.021,5.549,16.5,15.093l1.72,1.569.044-8.331.044-8.331h5.781v11.4H35.3v-11.4H56.734v5.954H41.083v5.444H52.14v5.784H41.083v5.444H56.734v5.784H35.3V27.609H32.582l-.045,5.632-.045,5.632L29.256,35.92c-3.732-3.4-12.987-11.787-14.218-12.877L14.2,22.3V38.837H8.421Zm82.166,0v-14.2h5.954V33.053h10.037v5.784H90.587Zm23.646,2.977V16.381h-7.825V10.427h21.435v5.954h-7.825V38.837h-5.784Zm16.161-2.975V10.388l4.551.082c4.179.075,4.684.117,6.182.513A14.138,14.138,0,0,1,149.69,32.16a16.129,16.129,0,0,1-5.814,5.169c-3.005,1.359-3.026,1.363-8.506,1.461l-4.976.09Zm8.181,8.229c3.441-.384,5.952-2.229,7.193-6.3a8.353,8.353,0,0,0-4.35-9.293,7.712,7.712,0,0,0-3.921-.883l-1.318,0V33.053h.483c.266,0,1.127-.086,1.914-.19Z" fill="#0000fe"></path>
    </g>
    <path id="Path_6" data-name="Path 6" d="M2.682-10.107l.126.018V0H.918V-11.88H3.555L9.3-1.8l-.117.027V-11.88h1.881V0H8.415ZM16.866.216A4.142,4.142,0,0,1,14.8-.292a3.723,3.723,0,0,1-1.418-1.386,3.876,3.876,0,0,1-.513-1.993,3.949,3.949,0,0,1,.513-2.007A3.759,3.759,0,0,1,14.8-7.088a4.085,4.085,0,0,1,2.066-.518,4.011,4.011,0,0,1,2.052.518,3.754,3.754,0,0,1,1.4,1.409,3.976,3.976,0,0,1,.508,2.007,3.9,3.9,0,0,1-.508,1.993,3.717,3.717,0,0,1-1.4,1.386A4.067,4.067,0,0,1,16.866.216Zm0-1.62a2.085,2.085,0,0,0,1.125-.3,2.006,2.006,0,0,0,.738-.81,2.544,2.544,0,0,0,.261-1.17,2.572,2.572,0,0,0-.261-1.175,2.062,2.062,0,0,0-.738-.823,2.038,2.038,0,0,0-1.125-.306,2.06,2.06,0,0,0-1.13.306,2.084,2.084,0,0,0-.747.823,2.536,2.536,0,0,0-.265,1.175,2.509,2.509,0,0,0,.265,1.17,2.027,2.027,0,0,0,.747.81A2.108,2.108,0,0,0,16.866-1.4ZM24.282,0H22.365V-7.389h1.917v1.233h-.045a1.669,1.669,0,0,1,.347-.562,2.7,2.7,0,0,1,.787-.612,2.507,2.507,0,0,1,1.215-.275,2.73,2.73,0,0,1,.918.144,1.943,1.943,0,0,1,.576.288l-.774,1.584a1.172,1.172,0,0,0-.437-.284,1.968,1.968,0,0,0-.788-.14,1.465,1.465,0,0,0-.986.342,2.234,2.234,0,0,0-.608.819,2.249,2.249,0,0,0-.207.891ZM28.53-7.389h1.386v-3.033h1.908v3.033h1.827v1.62H31.824V-2.61a1.591,1.591,0,0,0,.2.891.66.66,0,0,0,.58.3.925.925,0,0,0,.5-.117,1.146,1.146,0,0,0,.221-.162l.711,1.395a1.5,1.5,0,0,1-.315.18,3.775,3.775,0,0,1-.675.234A3.755,3.755,0,0,1,32.1.216a2.259,2.259,0,0,1-1.562-.558,2.226,2.226,0,0,1-.626-1.746V-5.769H28.53Zm11.25-.216a3.57,3.57,0,0,1,1.44.306,2.669,2.669,0,0,1,1.157.977,3.046,3.046,0,0,1,.454,1.741V0H40.9V-4.23A2.058,2.058,0,0,0,40.442-5.7a1.591,1.591,0,0,0-1.2-.472,1.812,1.812,0,0,0-.954.279,2.237,2.237,0,0,0-.752.756,2.058,2.058,0,0,0-.292,1.1V0H35.307V-12.384h1.935v6.237a1.451,1.451,0,0,1,.437-.643,3.083,3.083,0,0,1,.9-.576A2.972,2.972,0,0,1,39.78-7.605ZM50.67,0V-1.368a1.993,1.993,0,0,1-.41.594,3.241,3.241,0,0,1-.918.684A2.9,2.9,0,0,1,47.97.216a3.56,3.56,0,0,1-1.863-.495A3.519,3.519,0,0,1,44.8-1.656a4.209,4.209,0,0,1-.477-2.034A4.209,4.209,0,0,1,44.8-5.724a3.552,3.552,0,0,1,1.305-1.382,3.536,3.536,0,0,1,1.863-.5,3.091,3.091,0,0,1,1.341.27,3.207,3.207,0,0,1,.913.621,1.661,1.661,0,0,1,.428.612V-7.389H52.56V0ZM46.224-3.69a2.389,2.389,0,0,0,.315,1.242,2.223,2.223,0,0,0,.824.819,2.183,2.183,0,0,0,1.094.288,2.12,2.12,0,0,0,1.12-.3,2.112,2.112,0,0,0,.774-.823,2.553,2.553,0,0,0,.284-1.229,2.553,2.553,0,0,0-.284-1.229,2.145,2.145,0,0,0-.774-.828,2.1,2.1,0,0,0-1.12-.3,2.157,2.157,0,0,0-1.094.292,2.258,2.258,0,0,0-.824.824A2.389,2.389,0,0,0,46.224-3.69ZM63.81-7.605a2.771,2.771,0,0,1,1.427.351,2.3,2.3,0,0,1,.927,1.08,4.556,4.556,0,0,1,.329,1.863V0h-1.9V-3.969a3.506,3.506,0,0,0-.3-1.629,1.166,1.166,0,0,0-1.13-.558,1.59,1.59,0,0,0-.846.243,1.715,1.715,0,0,0-.634.725,2.742,2.742,0,0,0-.239,1.219V0H59.661V-3.969A2.992,2.992,0,0,0,59.3-5.6a1.211,1.211,0,0,0-1.084-.558,1.6,1.6,0,0,0-.846.234,1.643,1.643,0,0,0-.621.72,2.842,2.842,0,0,0-.234,1.233V0H54.6V-7.389h1.908v1.107a1.5,1.5,0,0,1,.445-.585,3.077,3.077,0,0,1,.868-.522,2.961,2.961,0,0,1,1.143-.216,2.285,2.285,0,0,1,1.12.248,2.136,2.136,0,0,1,.711.616A2.843,2.843,0,0,1,61.191-6a1.991,1.991,0,0,1,.491-.738,3,3,0,0,1,.913-.616A2.923,2.923,0,0,1,63.81-7.605ZM70.4,3.744H68.49V-7.389h1.935V-6.1a1.81,1.81,0,0,1,.464-.621,3.3,3.3,0,0,1,.967-.617,3.386,3.386,0,0,1,1.377-.266,3.346,3.346,0,0,1,1.832.5A3.425,3.425,0,0,1,76.3-5.724a4.452,4.452,0,0,1,.446,2.034,4.343,4.343,0,0,1-.459,2.034A3.444,3.444,0,0,1,75.019-.279,3.46,3.46,0,0,1,73.17.216a3.144,3.144,0,0,1-1.422-.3A3.169,3.169,0,0,1,70.8-.765a1.755,1.755,0,0,1-.4-.6ZM74.844-3.69a2.5,2.5,0,0,0-.3-1.242,2.168,2.168,0,0,0-.787-.824,2.061,2.061,0,0,0-1.076-.292,2.214,2.214,0,0,0-1.143.3,2.224,2.224,0,0,0-.815.828,2.429,2.429,0,0,0-.3,1.229,2.429,2.429,0,0,0,.3,1.229,2.191,2.191,0,0,0,.815.823,2.24,2.24,0,0,0,1.143.3,2.086,2.086,0,0,0,1.076-.288,2.134,2.134,0,0,0,.787-.819A2.5,2.5,0,0,0,74.844-3.69Zm2.826-3.7h1.386v-3.033h1.908v3.033h1.827v1.62H80.964V-2.61a1.591,1.591,0,0,0,.2.891.66.66,0,0,0,.58.3.925.925,0,0,0,.5-.117,1.146,1.146,0,0,0,.22-.162l.711,1.395a1.5,1.5,0,0,1-.315.18,3.775,3.775,0,0,1-.675.234,3.755,3.755,0,0,1-.945.108,2.259,2.259,0,0,1-1.562-.558,2.226,2.226,0,0,1-.625-1.746V-5.769H77.67ZM87.957.216a4.142,4.142,0,0,1-2.066-.508,3.723,3.723,0,0,1-1.417-1.386,3.876,3.876,0,0,1-.513-1.993,3.949,3.949,0,0,1,.513-2.007,3.759,3.759,0,0,1,1.417-1.409,4.085,4.085,0,0,1,2.066-.518,4.011,4.011,0,0,1,2.052.518,3.754,3.754,0,0,1,1.4,1.409,3.976,3.976,0,0,1,.509,2.007,3.9,3.9,0,0,1-.509,1.993,3.717,3.717,0,0,1-1.4,1.386A4.067,4.067,0,0,1,87.957.216Zm0-1.62a2.085,2.085,0,0,0,1.125-.3,2.006,2.006,0,0,0,.738-.81,2.544,2.544,0,0,0,.261-1.17,2.572,2.572,0,0,0-.261-1.175,2.062,2.062,0,0,0-.738-.823,2.038,2.038,0,0,0-1.125-.306,2.06,2.06,0,0,0-1.13.306,2.084,2.084,0,0,0-.747.823,2.536,2.536,0,0,0-.266,1.175,2.509,2.509,0,0,0,.266,1.17,2.027,2.027,0,0,0,.747.81A2.108,2.108,0,0,0,87.957-1.4Zm10.008-6.2a3.591,3.591,0,0,1,1.449.306,2.669,2.669,0,0,1,1.156.977,3.046,3.046,0,0,1,.455,1.741V0H99.09V-4.23A2.007,2.007,0,0,0,98.618-5.7a1.65,1.65,0,0,0-1.22-.472,1.766,1.766,0,0,0-.945.279,2.187,2.187,0,0,0-.733.756,2.108,2.108,0,0,0-.284,1.1V0H93.51V-7.389h1.926v1.242a1.451,1.451,0,0,1,.437-.643,3.083,3.083,0,0,1,.9-.576A2.949,2.949,0,0,1,97.965-7.605Zm7.911,0a5.352,5.352,0,0,1,1.152.117,5.128,5.128,0,0,1,.909.279,2.8,2.8,0,0,1,.522.27l-.7,1.188a2.709,2.709,0,0,0-.644-.351,2.621,2.621,0,0,0-1.039-.2,2.079,2.079,0,0,0-.972.207.665.665,0,0,0-.4.621.73.73,0,0,0,.419.648,4.092,4.092,0,0,0,1.138.405,6.2,6.2,0,0,1,1.134.374,2.293,2.293,0,0,1,.886.675A1.822,1.822,0,0,1,108.63-2.2a2.128,2.128,0,0,1-.293,1.156,2.2,2.2,0,0,1-.778.742,3.606,3.606,0,0,1-1.076.4A5.848,5.848,0,0,1,105.3.216,5.34,5.34,0,0,1,104,.072a4.539,4.539,0,0,1-.95-.338,3.123,3.123,0,0,1-.54-.328l.7-1.332a2.906,2.906,0,0,0,.765.472,2.778,2.778,0,0,0,1.188.247,2.068,2.068,0,0,0,1.125-.27.821.821,0,0,0,.423-.72.739.739,0,0,0-.2-.54,1.441,1.441,0,0,0-.554-.333,6.861,6.861,0,0,0-.783-.225,6.7,6.7,0,0,1-.814-.257,3.1,3.1,0,0,1-.752-.414,1.932,1.932,0,0,1-.549-.644,1.9,1.9,0,0,1-.207-.909,1.631,1.631,0,0,1,.423-1.134,2.652,2.652,0,0,1,1.116-.711A4.456,4.456,0,0,1,105.876-7.605Zm8.946,0a3.57,3.57,0,0,1,1.44.306,2.669,2.669,0,0,1,1.156.977,3.046,3.046,0,0,1,.455,1.741V0h-1.935V-4.23a2.058,2.058,0,0,0-.454-1.471,1.591,1.591,0,0,0-1.2-.472,1.812,1.812,0,0,0-.954.279,2.237,2.237,0,0,0-.751.756,2.058,2.058,0,0,0-.293,1.1V0h-1.935V-12.384h1.935v6.237a1.451,1.451,0,0,1,.437-.643,3.083,3.083,0,0,1,.9-.576A2.972,2.972,0,0,1,114.822-7.605ZM119.988,0V-7.389h1.917V0Zm.981-9.6a1.128,1.128,0,0,1-.832-.351,1.15,1.15,0,0,1-.347-.837,1.165,1.165,0,0,1,.347-.841,1.121,1.121,0,0,1,.832-.356,1.133,1.133,0,0,1,.6.166,1.321,1.321,0,0,1,.441.432,1.1,1.1,0,0,1,.167.6,1.143,1.143,0,0,1-.351.837A1.164,1.164,0,0,1,120.969-9.6ZM125.982,0h-1.917V-7.389h1.917v1.233h-.045a1.669,1.669,0,0,1,.347-.562,2.7,2.7,0,0,1,.787-.612,2.507,2.507,0,0,1,1.215-.275,2.73,2.73,0,0,1,.918.144,1.943,1.943,0,0,1,.576.288l-.774,1.584a1.172,1.172,0,0,0-.436-.284,1.968,1.968,0,0,0-.788-.14,1.465,1.465,0,0,0-.985.342,2.234,2.234,0,0,0-.607.819,2.249,2.249,0,0,0-.207.891Zm5.877-3.24a2.272,2.272,0,0,0,.279,1.053,1.82,1.82,0,0,0,.77.734,2.668,2.668,0,0,0,1.247.266,3.114,3.114,0,0,0,1.1-.176,2.782,2.782,0,0,0,.77-.423,2.2,2.2,0,0,0,.45-.463l.855,1.161a3.016,3.016,0,0,1-.7.675,3.28,3.28,0,0,1-1.048.464,6.1,6.1,0,0,1-1.544.167,4.25,4.25,0,0,1-2.1-.495,3.455,3.455,0,0,1-1.382-1.4,4.334,4.334,0,0,1-.49-2.106,4.172,4.172,0,0,1,.45-1.948A3.352,3.352,0,0,1,131.827-7.1a4.014,4.014,0,0,1,2.066-.5,4.03,4.03,0,0,1,1.953.45,3.13,3.13,0,0,1,1.283,1.292,4.217,4.217,0,0,1,.454,2.029q0,.072,0,.3a1.661,1.661,0,0,1-.023.3Zm3.924-1.4a1.617,1.617,0,0,0-.193-.657,1.707,1.707,0,0,0-.59-.644,1.9,1.9,0,0,0-1.08-.274,2.124,2.124,0,0,0-1.125.266,1.786,1.786,0,0,0-.639.63,1.813,1.813,0,0,0-.243.68ZM.918,5.12h7.2V6.812H2.8v3.411H8.028V11.87H2.8v3.438H8.118V17H.918ZM12.357,17H10.422V4.616h1.935Zm3.429-3.24a2.272,2.272,0,0,0,.279,1.053,1.82,1.82,0,0,0,.77.734,2.668,2.668,0,0,0,1.247.266,3.114,3.114,0,0,0,1.1-.175,2.782,2.782,0,0,0,.77-.423,2.2,2.2,0,0,0,.45-.464l.855,1.161a3.016,3.016,0,0,1-.7.675,3.28,3.28,0,0,1-1.049.463,6.1,6.1,0,0,1-1.543.167,4.25,4.25,0,0,1-2.1-.495,3.455,3.455,0,0,1-1.382-1.4,4.334,4.334,0,0,1-.49-2.106,4.172,4.172,0,0,1,.45-1.949A3.352,3.352,0,0,1,15.754,9.9a4.014,4.014,0,0,1,2.066-.5,4.03,4.03,0,0,1,1.953.45,3.13,3.13,0,0,1,1.283,1.292,4.217,4.217,0,0,1,.455,2.03q0,.072,0,.3a1.662,1.662,0,0,1-.023.3Zm3.924-1.4a1.617,1.617,0,0,0-.194-.657,1.707,1.707,0,0,0-.589-.644,1.9,1.9,0,0,0-1.08-.274,2.124,2.124,0,0,0-1.125.266,1.786,1.786,0,0,0-.639.63,1.813,1.813,0,0,0-.243.68Zm7.083,3.3a2.223,2.223,0,0,0,1.04-.212,3.465,3.465,0,0,0,.517-.311l.909,1.35a2.856,2.856,0,0,1-.45.266,4.587,4.587,0,0,1-2.061.463,4.272,4.272,0,0,1-1.994-.463,3.576,3.576,0,0,1-1.431-1.341,3.975,3.975,0,0,1-.535-2.111,3.97,3.97,0,0,1,.535-2.115,3.554,3.554,0,0,1,1.431-1.332,4.306,4.306,0,0,1,1.994-.459,4.261,4.261,0,0,1,1.174.149,4.172,4.172,0,0,1,.859.337,2.638,2.638,0,0,1,.459.3l-.927,1.35a2.433,2.433,0,0,0-.257-.2,2.137,2.137,0,0,0-1.264-.374,2.029,2.029,0,0,0-1.035.288,2.267,2.267,0,0,0-.81.815,2.383,2.383,0,0,0-.315,1.246,2.407,2.407,0,0,0,.315,1.251,2.256,2.256,0,0,0,.81.819A2.029,2.029,0,0,0,26.793,15.659ZM29.97,9.611h1.386V6.578h1.908V9.611h1.827v1.62H33.264V14.39a1.591,1.591,0,0,0,.2.891.66.66,0,0,0,.581.3.925.925,0,0,0,.5-.117,1.146,1.146,0,0,0,.22-.162l.711,1.4a1.5,1.5,0,0,1-.315.18,3.8,3.8,0,0,1-1.62.342,2.259,2.259,0,0,1-1.562-.558,2.226,2.226,0,0,1-.625-1.746V11.231H29.97ZM38.565,17H36.648V9.611h1.917v1.233H38.52a1.669,1.669,0,0,1,.347-.562,2.7,2.7,0,0,1,.787-.612,2.507,2.507,0,0,1,1.215-.275,2.73,2.73,0,0,1,.918.144,1.943,1.943,0,0,1,.576.288l-.774,1.584a1.172,1.172,0,0,0-.437-.283,1.968,1.968,0,0,0-.788-.14,1.465,1.465,0,0,0-.985.342,2.376,2.376,0,0,0-.815,1.71Zm4.878,0V9.611H45.36V17Zm.981-9.6a1.128,1.128,0,0,1-.833-.351,1.15,1.15,0,0,1-.346-.837,1.165,1.165,0,0,1,.346-.841,1.121,1.121,0,0,1,.833-.356,1.133,1.133,0,0,1,.6.166,1.321,1.321,0,0,1,.441.432,1.1,1.1,0,0,1,.167.6,1.143,1.143,0,0,1-.351.837A1.164,1.164,0,0,1,44.424,7.4Zm6.831,8.262a2.223,2.223,0,0,0,1.04-.212,3.465,3.465,0,0,0,.517-.311l.909,1.35a2.856,2.856,0,0,1-.45.266,4.587,4.587,0,0,1-2.061.463,4.272,4.272,0,0,1-1.993-.463,3.576,3.576,0,0,1-1.431-1.341A3.975,3.975,0,0,1,47.25,13.3a3.97,3.97,0,0,1,.536-2.115,3.554,3.554,0,0,1,1.431-1.332,4.306,4.306,0,0,1,1.993-.459,4.261,4.261,0,0,1,1.174.149,4.172,4.172,0,0,1,.86.337,2.638,2.638,0,0,1,.459.3l-.927,1.35a2.433,2.433,0,0,0-.257-.2,2.137,2.137,0,0,0-1.264-.374,2.029,2.029,0,0,0-1.035.288,2.267,2.267,0,0,0-.81.815A2.383,2.383,0,0,0,49.1,13.3a2.407,2.407,0,0,0,.315,1.251,2.256,2.256,0,0,0,.81.819A2.029,2.029,0,0,0,51.255,15.659ZM61,17V15.632a1.993,1.993,0,0,1-.41.594,3.241,3.241,0,0,1-.918.684,2.9,2.9,0,0,1-1.372.306,3.56,3.56,0,0,1-1.863-.495,3.519,3.519,0,0,1-1.305-1.377,4.209,4.209,0,0,1-.477-2.034,4.209,4.209,0,0,1,.477-2.034A3.513,3.513,0,0,1,58.3,9.395a3.091,3.091,0,0,1,1.341.27,3.207,3.207,0,0,1,.913.621,1.661,1.661,0,0,1,.428.612V9.611h1.908V17Zm-4.446-3.69a2.389,2.389,0,0,0,.315,1.242,2.223,2.223,0,0,0,.824.819,2.183,2.183,0,0,0,1.094.288,2.081,2.081,0,0,0,1.894-1.121,2.8,2.8,0,0,0,0-2.457,2.145,2.145,0,0,0-.774-.828,2.1,2.1,0,0,0-1.12-.3,2.157,2.157,0,0,0-1.094.292,2.258,2.258,0,0,0-.824.824A2.389,2.389,0,0,0,56.556,13.31ZM66.843,17H64.908V4.616h1.935Zm-60,15.344a5.185,5.185,0,0,0,1.8-.284,4.206,4.206,0,0,0,1.12-.563l.81,1.62a4.608,4.608,0,0,1-1.413.729,7.031,7.031,0,0,1-2.412.369,6.354,6.354,0,0,1-2.448-.468,6.225,6.225,0,0,1-1.989-1.3A5.96,5.96,0,0,1,.972,30.5,6.1,6.1,0,0,1,.5,28.078a6.16,6.16,0,0,1,.477-2.43A6.019,6.019,0,0,1,2.3,23.686a6.184,6.184,0,0,1,1.989-1.31A6.334,6.334,0,0,1,6.741,21.9a7.031,7.031,0,0,1,2.412.369A4.608,4.608,0,0,1,10.566,23l-.81,1.62a4.206,4.206,0,0,0-1.12-.562,5.185,5.185,0,0,0-1.8-.283,4.619,4.619,0,0,0-1.764.324,3.95,3.95,0,0,0-1.359.909,4.084,4.084,0,0,0-.873,1.364,4.547,4.547,0,0,0-.306,1.678,4.608,4.608,0,0,0,.306,1.692,4.073,4.073,0,0,0,.873,1.368,3.95,3.95,0,0,0,1.359.909A4.619,4.619,0,0,0,6.84,32.344Zm9.009,1.872a4.142,4.142,0,0,1-2.065-.508,3.723,3.723,0,0,1-1.418-1.386,3.876,3.876,0,0,1-.513-1.993,3.949,3.949,0,0,1,.513-2.007,3.759,3.759,0,0,1,1.418-1.408,4.085,4.085,0,0,1,2.065-.517,4.011,4.011,0,0,1,2.052.517,3.754,3.754,0,0,1,1.4,1.408,3.976,3.976,0,0,1,.509,2.007,3.9,3.9,0,0,1-.509,1.993,3.717,3.717,0,0,1-1.4,1.386A4.067,4.067,0,0,1,15.849,34.216Zm0-1.62a2.085,2.085,0,0,0,1.125-.3,2.006,2.006,0,0,0,.738-.81,2.544,2.544,0,0,0,.261-1.17,2.572,2.572,0,0,0-.261-1.174,2.062,2.062,0,0,0-.738-.824,2.038,2.038,0,0,0-1.125-.306,2.06,2.06,0,0,0-1.13.306,2.084,2.084,0,0,0-.747.824,2.536,2.536,0,0,0-.265,1.174,2.509,2.509,0,0,0,.265,1.17,2.027,2.027,0,0,0,.747.81A2.108,2.108,0,0,0,15.849,32.6Zm10.008-6.2a3.591,3.591,0,0,1,1.449.306,2.669,2.669,0,0,1,1.157.976,3.046,3.046,0,0,1,.454,1.742V34H26.982V29.77A2.007,2.007,0,0,0,26.51,28.3a1.65,1.65,0,0,0-1.219-.472,1.766,1.766,0,0,0-.945.279,2.187,2.187,0,0,0-.734.756,2.108,2.108,0,0,0-.283,1.1V34H21.4V26.611h1.926v1.242a1.451,1.451,0,0,1,.437-.644,3.083,3.083,0,0,1,.9-.576A2.949,2.949,0,0,1,25.857,26.4Zm4.347.216H31.59V23.578H33.5v3.033h1.827v1.62H33.5V31.39a1.591,1.591,0,0,0,.2.891.66.66,0,0,0,.581.3.925.925,0,0,0,.5-.117A1.146,1.146,0,0,0,35,32.3l.711,1.4a1.5,1.5,0,0,1-.315.18,3.795,3.795,0,0,1-1.62.342,2.259,2.259,0,0,1-1.562-.558,2.226,2.226,0,0,1-.625-1.746V28.231H30.2ZM38.8,34H36.882V26.611H38.8v1.233h-.045a1.669,1.669,0,0,1,.347-.562,2.7,2.7,0,0,1,.787-.612A2.507,2.507,0,0,1,41.1,26.4a2.73,2.73,0,0,1,.918.144,1.943,1.943,0,0,1,.576.288l-.774,1.584a1.172,1.172,0,0,0-.437-.283,1.968,1.968,0,0,0-.788-.14,1.465,1.465,0,0,0-.985.342,2.376,2.376,0,0,0-.815,1.71Zm10.422,0V32.632a1.993,1.993,0,0,1-.41.594,3.241,3.241,0,0,1-.918.684,2.9,2.9,0,0,1-1.372.306,3.56,3.56,0,0,1-1.863-.495,3.519,3.519,0,0,1-1.305-1.377,4.575,4.575,0,0,1,0-4.068A3.513,3.513,0,0,1,46.521,26.4a3.091,3.091,0,0,1,1.341.27,3.207,3.207,0,0,1,.913.621,1.661,1.661,0,0,1,.428.612V26.611h1.908V34Zm-4.446-3.69a2.389,2.389,0,0,0,.315,1.242,2.223,2.223,0,0,0,.824.819,2.183,2.183,0,0,0,1.094.288A2.081,2.081,0,0,0,48.9,31.538a2.8,2.8,0,0,0,0-2.457,2.145,2.145,0,0,0-.774-.828,2.1,2.1,0,0,0-1.12-.3,2.157,2.157,0,0,0-1.094.292,2.258,2.258,0,0,0-.824.824A2.389,2.389,0,0,0,44.775,30.31Zm11.97,2.349a2.222,2.222,0,0,0,1.04-.212,3.465,3.465,0,0,0,.517-.31l.909,1.35a2.856,2.856,0,0,1-.45.265,4.587,4.587,0,0,1-2.061.464,4.272,4.272,0,0,1-1.993-.464,3.576,3.576,0,0,1-1.431-1.341,4.436,4.436,0,0,1,0-4.225,3.554,3.554,0,0,1,1.431-1.332A4.306,4.306,0,0,1,56.7,26.4a4.261,4.261,0,0,1,1.174.149,4.172,4.172,0,0,1,.86.337,2.638,2.638,0,0,1,.459.3l-.927,1.35a2.433,2.433,0,0,0-.257-.2,2.137,2.137,0,0,0-1.264-.374,2.029,2.029,0,0,0-1.035.288,2.267,2.267,0,0,0-.81.815,2.383,2.383,0,0,0-.315,1.247,2.407,2.407,0,0,0,.315,1.251,2.256,2.256,0,0,0,.81.819A2.029,2.029,0,0,0,56.745,32.659Zm3.177-6.048h1.386V23.578h1.908v3.033h1.827v1.62H63.216V31.39a1.591,1.591,0,0,0,.2.891.66.66,0,0,0,.581.3.925.925,0,0,0,.5-.117,1.146,1.146,0,0,0,.221-.162l.711,1.4a1.5,1.5,0,0,1-.315.18,3.795,3.795,0,0,1-1.62.342,2.259,2.259,0,0,1-1.562-.558,2.226,2.226,0,0,1-.625-1.746V28.231H59.922Zm10.287,7.6a4.142,4.142,0,0,1-2.065-.508,3.723,3.723,0,0,1-1.417-1.386,3.876,3.876,0,0,1-.513-1.993,3.949,3.949,0,0,1,.513-2.007,3.759,3.759,0,0,1,1.417-1.408,4.085,4.085,0,0,1,2.065-.517,4.011,4.011,0,0,1,2.052.517,3.754,3.754,0,0,1,1.4,1.408,3.976,3.976,0,0,1,.508,2.007,3.9,3.9,0,0,1-.508,1.993,3.717,3.717,0,0,1-1.4,1.386A4.067,4.067,0,0,1,70.209,34.216Zm0-1.62a2.085,2.085,0,0,0,1.125-.3,2.006,2.006,0,0,0,.738-.81,2.544,2.544,0,0,0,.261-1.17,2.572,2.572,0,0,0-.261-1.174,2.062,2.062,0,0,0-.738-.824,2.038,2.038,0,0,0-1.125-.306,2.06,2.06,0,0,0-1.129.306,2.084,2.084,0,0,0-.747.824,2.536,2.536,0,0,0-.266,1.174,2.509,2.509,0,0,0,.266,1.17,2.027,2.027,0,0,0,.747.81A2.108,2.108,0,0,0,70.209,32.6ZM77.625,34H75.708V26.611h1.917v1.233H77.58a1.669,1.669,0,0,1,.347-.562,2.7,2.7,0,0,1,.787-.612,2.507,2.507,0,0,1,1.215-.274,2.73,2.73,0,0,1,.918.144,1.943,1.943,0,0,1,.576.288l-.774,1.584a1.172,1.172,0,0,0-.437-.283,1.968,1.968,0,0,0-.787-.14,1.465,1.465,0,0,0-.985.342,2.376,2.376,0,0,0-.814,1.71Zm7.551-7.6a5.352,5.352,0,0,1,1.152.117,5.128,5.128,0,0,1,.909.279,2.8,2.8,0,0,1,.522.27l-.7,1.188a2.709,2.709,0,0,0-.644-.351,2.621,2.621,0,0,0-1.039-.2,2.079,2.079,0,0,0-.972.207.665.665,0,0,0-.4.621.73.73,0,0,0,.419.648,4.092,4.092,0,0,0,1.138.405,6.2,6.2,0,0,1,1.134.374,2.293,2.293,0,0,1,.886.675A1.822,1.822,0,0,1,87.93,31.8a2.128,2.128,0,0,1-.293,1.156,2.2,2.2,0,0,1-.778.743,3.606,3.606,0,0,1-1.076.4,5.849,5.849,0,0,1-1.184.121,5.34,5.34,0,0,1-1.3-.144,4.539,4.539,0,0,1-.95-.337,3.123,3.123,0,0,1-.54-.329l.7-1.332a2.906,2.906,0,0,0,.765.472,2.779,2.779,0,0,0,1.188.247,2.068,2.068,0,0,0,1.125-.27.821.821,0,0,0,.423-.72.739.739,0,0,0-.2-.54,1.441,1.441,0,0,0-.554-.333,6.861,6.861,0,0,0-.783-.225,6.7,6.7,0,0,1-.814-.256,3.1,3.1,0,0,1-.752-.414,1.932,1.932,0,0,1-.549-.643,1.9,1.9,0,0,1-.207-.909,1.631,1.631,0,0,1,.423-1.134,2.652,2.652,0,0,1,1.116-.711A4.456,4.456,0,0,1,85.176,26.4Z" transform="translate(89 -1556)" fill="#0200fe"></path>
  </g>
</svg>
